<svg xmlns="http://www.w3.org/2000/svg" version="1.1" xmlns:xlink="http://www.w3.org/1999/xlink" xmlns:svgjs="http://svgjs.dev/svgjs" width="2000" height="1500" viewBox="0 0 2000 1500"><rect width="2000" height="1500" fill="#ffffff"></rect><g transform="matrix(0.75,0,0,0.75,249.090909090909,282.7536437246963)"><svg viewBox="0 0 396 247" data-background-color="#ffffff" preserveAspectRatio="xMidYMid meet" height="1247" width="2000" xmlns="http://www.w3.org/2000/svg" xmlns:xlink="http://www.w3.org/1999/xlink"><g id="tight-bounds" transform="matrix(1,0,0,1,0.2400000000000091,-0.09999999999999432)"><svg viewBox="0 0 395.52 247.2" height="247.2" width="395.52"><g><svg></svg></g><g><svg viewBox="0 0 395.52 247.2" height="247.2" width="395.52"><mask id="ecdc6a68-e5c7-4678-8f3e-f3d08ee98b8a"><rect width="640" height="400" fill="white"></rect><g transform="matrix(1,0,0,1,117.80577723378212,37.08)"><svg viewBox="0 0 159.90844553243574 173.04" height="173.04" width="159.90844553243574"><g><svg viewBox="0 0 159.90844553243574 173.04" height="173.04" width="159.90844553243574"><g><svg viewBox="0 0 159.90844553243574 173.04" height="173.04" width="159.90844553243574"><g><svg viewBox="0 0 159.90844553243574 173.04" height="173.04" width="159.90844553243574"><g id="SvgjsG1579"><svg viewBox="0 0 159.90844553243574 173.04" height="173.04" width="159.90844553243574" id="SvgjsSvg1578"><g><svg viewBox="0 0 159.90844553243574 173.04" height="173.04" width="159.90844553243574"><g transform="matrix(1,0,0,1,0,0)"><svg width="159.90844553243574" viewBox="-4.25 -37.85 38.75 41.85" height="173.04" data-palette-color="#ee3e38"><path d="M-0.25 0L12.75-33.85 17.45-33.85 30.5 0 24.15 0 21.05-8.85 8.85-8.85 5.65 0-0.25 0ZM10.45-13.25L19.5-13.25Q17.9-17.75 16.75-21.43 15.6-25.1 15-27.2L15-27.2Q14.3-24.95 13.15-21.3 12-17.65 10.45-13.25L10.45-13.25Z" opacity="1" transform="matrix(1,0,0,1,0,0)" fill="black" class="wordmark-text-0" id="SvgjsPath1577" stroke-width="7" stroke="black" stroke-linejoin="round"></path></svg></g></svg></g></svg></g></svg></g><g></g></svg></g></svg></g></svg></g></mask><g transform="matrix(1,0,0,1,117.80577723378212,37.08)"><svg viewBox="0 0 159.90844553243574 173.04" height="173.04" width="159.90844553243574"><g><svg viewBox="0 0 159.90844553243574 173.04" height="173.04" width="159.90844553243574"><g><svg viewBox="0 0 159.90844553243574 173.04" height="173.04" width="159.90844553243574"><g><svg viewBox="0 0 159.90844553243574 173.04" height="173.04" width="159.90844553243574"><g id="textblocktransform"><svg viewBox="0 0 159.90844553243574 173.04" height="173.04" width="159.90844553243574" id="textblock"><g><svg viewBox="0 0 159.90844553243574 173.04" height="173.04" width="159.90844553243574"><g transform="matrix(1,0,0,1,0,0)"><svg width="159.90844553243574" viewBox="-4.25 -37.85 38.75 41.85" height="173.04" data-palette-color="#ee3e38"><path d="M-0.25 0L12.75-33.85 17.45-33.85 30.5 0 24.15 0 21.05-8.85 8.85-8.85 5.65 0-0.25 0ZM10.45-13.25L19.5-13.25Q17.9-17.75 16.75-21.43 15.6-25.1 15-27.2L15-27.2Q14.3-24.95 13.15-21.3 12-17.65 10.45-13.25L10.45-13.25Z" opacity="1" transform="matrix(1,0,0,1,0,0)" fill="#ee3e38" class="wordmark-text-0" data-fill-palette-color="primary" id="text-0"></path></svg></g></svg></g></svg></g></svg></g><g></g></svg></g></svg></g></svg></g><g mask="url(#ecdc6a68-e5c7-4678-8f3e-f3d08ee98b8a)"><g transform="matrix(4.086666651691542, 0, 0, 4.086666651691542, 75.16000044925374, 0.9999999999999858)"><svg xmlns="http://www.w3.org/2000/svg" data-name="Layer 1" viewBox="2 1.9999997801368274 60 60.000000219863175" x="0" y="0" height="60.000000219863175" width="60" class="icon-none" data-fill-palette-color="accent" id="none"><path d="M3 62H13a1 1 0 0 0 1-1V55a1 1 0 0 0-1-1H9V52H23v2H19a1 1 0 0 0-1 1v6a1 1 0 0 0 1 1H29a1 1 0 0 0 1-1V55a1 1 0 0 0-1-1H25V51a1 1 0 0 0-1-1H17V47.9a5 5 0 0 0 0-9.8V36H47v2.1a5 5 0 0 0 0 9.8V50H40a1 1 0 0 0-1 1v3H35a1 1 0 0 0-1 1v6a1 1 0 0 0 1 1H45a1 1 0 0 0 1-1V55a1 1 0 0 0-1-1H41V52H55v2H51a1 1 0 0 0-1 1v6a1 1 0 0 0 1 1H61a1 1 0 0 0 1-1V55a1 1 0 0 0-1-1H57V51a1 1 0 0 0-1-1H49V47.9a5 5 0 0 0 0-9.8V35a1 1 0 0 0-1-1H33V31H31v3H16a1 1 0 0 0-1 1v3.1a5 5 0 0 0 0 9.8V50H8a1 1 0 0 0-1 1v3H3a1 1 0 0 0-1 1v6A1 1 0 0 0 3 62Zm25-2H20V56h8Zm16 0H36V56h8Zm16 0H52V56h8ZM51 43a3 3 0 1 1-3-3A3 3 0 0 1 51 43ZM13 43a3 3 0 1 1 3 3A3 3 0 0 1 13 43ZM4 56h8v4H4Z" fill="#8d021f" data-fill-palette-color="accent"></path><path d="M45.811 3.414A1 1 0 0 0 45 3H40.978a0.991 0.991 0 0 0-0.214-0.646A1 1 0 0 0 40 2H24a1 1 0 0 0-0.76 0.351A0.982 0.982 0 0 0 23.021 3H19a1 1 0 0 0-0.95 1.313l1.689 5.118a7.69 7.69 0 0 0 5.844 5.1A7.693 7.693 0 0 0 31.014 17.8L31 21H28a1 1 0 0 0-0.895 0.553l-3 6A1 1 0 0 0 25 29H39a1 1 0 0 0 0.9-1.447l-3-6A1 1 0 0 0 36 21H33l0.011-3.22a7.72 7.72 0 0 0 5.305-3.228 7.686 7.686 0 0 0 5.942-5.121L45.95 4.313A1 1 0 0 0 45.811 3.414ZM37.382 27H26.618l2-4h6.764ZM24.457 12.073A5.677 5.677 0 0 1 21.639 8.8L20.383 5h2.922l0.017 0.108 0.956 6.033c0 0.016 0.008 0.032 0.01 0.049a7.636 7.636 0 0 0 0.151 0.792C24.446 12.012 24.449 12.043 24.457 12.073Zm7.56 3.78H31.9a5.677 5.677 0 0 1-4.965-2.946c-0.025-0.046-0.051-0.092-0.075-0.139a5.734 5.734 0 0 1-0.361-0.856c-0.009-0.027-0.016-0.055-0.024-0.083a5.782 5.782 0 0 1-0.217-0.986L25.171 4H38.817l-1.169 6.922a5.574 5.574 0 0 1-0.212 0.927c-0.014 0.046-0.026 0.093-0.041 0.139a5.64 5.64 0 0 1-0.34 0.784c-0.035 0.068-0.071 0.134-0.109 0.2A5.7 5.7 0 0 1 32.017 15.853ZM42.361 8.8a5.683 5.683 0 0 1-2.913 3.317c0.005-0.022 0.007-0.044 0.013-0.066a7.407 7.407 0 0 0 0.164-0.834L40.676 5h2.941Z" fill="#8d021f" data-fill-palette-color="accent"></path><path d="M35.961 8.112a1 1 0 0 0-0.771-0.706l-1.54-0.3-0.643-1.5a1 1 0 0 0-0.88-0.6 1.023 1.023 0 0 0-0.924 0.534l-0.756 1.439-1.555 0.169a1 1 0 0 0-0.631 1.668l1.1 1.2-0.335 1.63a1 1 0 0 0 1.422 1.1l1.4-0.693 1.347 0.808a1 1 0 0 0 1.507-0.982l-0.207-1.65 1.185-1.106A1 1 0 0 0 35.961 8.112Zm-3.2 1a1 1 0 0 0-0.31 0.856l0.014 0.117-0.051-0.031a1 1 0 0 0-0.957-0.039l-0.06 0.029 0.025-0.125a1 1 0 0 0-0.24-0.875l-0.114-0.125 0.127-0.013a1 1 0 0 0 0.777-0.53L32 8.327l0.024 0.055a1 1 0 0 0 0.729 0.588L32.882 9Z" fill="#8d021f" data-fill-palette-color="accent"></path><path d="M18.2 28.4a23.084 23.084 0 0 0 3.613 2.224l0.887-1.793a21.059 21.059 0 0 1-3.3-2.03Z" fill="#8d021f" data-fill-palette-color="accent"></path><path d="M42.313 30.564a23.187 23.187 0 0 0 3.6-2.246L44.7 26.726a21.175 21.175 0 0 1-3.286 2.051Z" fill="#8d021f" data-fill-palette-color="accent"></path><path d="M12.489 22.183a23.1 23.1 0 0 0 2.571 3.374L16.532 24.2a21.2 21.2 0 0 1-2.348-3.082Z" fill="#8d021f" data-fill-palette-color="accent"></path><path d="M49.037 25.452a23.074 23.074 0 0 0 2.55-3.391l-1.7-1.049a21.058 21.058 0 0 1-2.329 3.095Z" fill="#8d021f" data-fill-palette-color="accent"></path><path d="M12.442 17.665a20.888 20.888 0 0 1-1.072-3.72L9.4 14.318a22.852 22.852 0 0 0 1.175 4.076Z" fill="#8d021f" data-fill-palette-color="accent"></path><path d="M51.605 17.542l1.868 0.718a23.037 23.037 0 0 0 1.149-4.084l-1.967-0.362A20.905 20.905 0 0 1 51.605 17.542Z" fill="#8d021f" data-fill-palette-color="accent"></path><path d="M9.387 5.777A23.166 23.166 0 0 0 9 10v0.092L11 10a21.144 21.144 0 0 1 0.354-3.858Z" fill="#8d021f" data-fill-palette-color="accent"></path><path d="M54.6 5.729l-1.966 0.37A21.233 21.233 0 0 1 53 9.955l2 0A23.2 23.2 0 0 0 54.6 5.729Z" fill="#8d021f" data-fill-palette-color="accent"></path></svg></g></g></svg></g><defs></defs></svg><rect width="395.52" height="247.2" fill="none" stroke="none" visibility="hidden"></rect></g></svg></g></svg>